<?xml version="1.0" encoding="UTF-8"?>
<svg id="Layer_2" data-name="Layer 2" xmlns="http://www.w3.org/2000/svg" viewBox="0 0 94.37 79.37">
  <defs>
    <style>
      .cls-1 {
        fill: #013f1c;
      }
    </style>
  </defs>
  <g id="Layer_1-2" data-name="Layer 1">
    <g>
      <g>
        <path class="cls-1" d="M.03,47.78v-4.24c.76.63,1.58,1.14,2.5,1.46s1.8.47,2.72.47,1.01-.06,1.39-.16c.41-.09.73-.22,1.01-.41s.47-.38.6-.6.19-.47.19-.76-.09-.7-.32-.98-.51-.57-.85-.82-.79-.47-1.3-.73-1.04-.47-1.61-.7c-1.49-.6-2.56-1.36-3.29-2.25-.73-.89-1.08-1.96-1.08-3.23s.19-1.84.6-2.56c.38-.7.95-1.3,1.61-1.74s1.46-.79,2.37-1.01c.92-.22,1.84-.32,2.85-.32s1.87.06,2.63.19,1.46.28,2.09.54v3.96c-.32-.22-.66-.41-1.04-.57s-.76-.32-1.14-.41c-.38-.13-.79-.19-1.17-.25s-.76-.06-1.11-.06-.92.03-1.33.13c-.38.09-.73.22-1.01.38-.28.16-.47.38-.63.6s-.22.51-.22.79.09.6.25.85.41.51.7.73c.32.22.66.44,1.11.66s.95.44,1.49.66c.76.32,1.42.66,2.03,1.01.6.35,1.11.76,1.55,1.2s.76.98.98,1.55c.22.57.35,1.23.35,2.03s-.19,1.96-.6,2.66c-.41.73-.95,1.3-1.61,1.74-.7.44-1.49.76-2.41.95s-1.87.28-2.88.28-2.03-.09-2.94-.25-1.74-.44-2.44-.79h-.03Z"/>
        <path class="cls-1" d="M28.46,48.5h-4.15v-2.06h-.06c-1.01,1.61-2.41,2.41-4.12,2.41-3.13,0-4.69-1.9-4.69-5.7v-8.2h4.15v7.82c0,1.93.76,2.88,2.28,2.88s1.33-.25,1.8-.79.66-1.23.66-2.15v-7.76h4.15v13.58h0l-.03-.03Z"/>
        <path class="cls-1" d="M30.61,48.16v-3.39c.7.41,1.36.73,2.06.92s1.33.32,1.93.32,1.33-.09,1.74-.32c.41-.19.63-.51.63-.92s-.09-.47-.28-.66-.44-.35-.73-.47-.63-.25-.98-.35-.7-.22-1.04-.35c-.54-.19-1.01-.41-1.42-.66s-.76-.51-1.01-.82-.47-.66-.63-1.08-.22-.89-.22-1.46.16-1.42.51-1.96.76-.98,1.33-1.33c.54-.35,1.17-.6,1.87-.76s1.46-.25,2.22-.25,1.2.03,1.84.13c.6.09,1.23.22,1.84.41v3.23c-.54-.32-1.08-.54-1.68-.7s-1.2-.22-1.77-.22-.54,0-.76.06c-.25.06-.44.13-.63.22s-.32.22-.44.35c-.09.16-.16.32-.16.51s.06.44.25.63.38.32.6.44c.25.13.54.25.85.35s.63.19.92.32c.57.19,1.04.41,1.52.63s.82.51,1.14.82.57.66.73,1.08.25.92.25,1.49-.19,1.49-.51,2.06c-.35.57-.82,1.04-1.39,1.39s-1.23.6-1.99.79c-.76.16-1.52.25-2.34.25-1.49,0-2.85-.22-4.12-.7h-.09Z"/>
        <path class="cls-1" d="M51.7,48.25c-.6.32-1.55.51-2.79.51-2.94,0-4.4-1.52-4.4-4.59v-6.2h-2.18v-3.1h2.18v-2.91l4.15-1.2v4.12h3.04v3.1h-3.04v5.48c0,1.42.57,2.12,1.68,2.12s.89-.13,1.36-.38v3.1h0v-.03Z"/>
        <path class="cls-1" d="M65.72,48.44h-3.93v-1.93h-.06c-.92,1.52-2.25,2.28-4.02,2.28s-2.34-.38-3.1-1.11c-.76-.73-1.14-1.74-1.14-2.98,0-2.63,1.55-4.15,4.65-4.56l3.67-.51c0-1.49-.79-2.22-2.41-2.22s-3.13.47-4.59,1.46v-3.17c.57-.28,1.36-.57,2.37-.79s1.93-.35,2.75-.35c3.83,0,5.76,1.93,5.76,5.79v8.1h0l.03-.03ZM61.8,42.93v-.92l-2.44.32c-1.36.19-2.03.79-2.03,1.84s.16.85.51,1.17c.32.32.76.44,1.33.44s1.42-.28,1.9-.82c.51-.54.73-1.23.73-2.06h0v.03Z"/>
        <path class="cls-1" d="M81.08,34.95l-5.03,13.58h-4.75l-4.78-13.58h4.46l2.34,8.36c.25.95.41,1.74.44,2.41h.06c.06-.63.22-1.39.47-2.34l2.41-8.45h4.34l.03.03Z"/>
        <path class="cls-1" d="M94.37,42.65h-8.8c.13,1.96,1.36,2.94,3.7,2.94s2.79-.35,3.93-1.08v3.01c-1.23.66-2.88,1.01-4.88,1.01s-3.86-.6-5.07-1.84c-1.2-1.2-1.8-2.91-1.8-5.1s.63-4.05,1.96-5.35c1.3-1.3,2.88-1.96,4.78-1.96s3.48.6,4.56,1.77c1.08,1.17,1.61,2.75,1.61,4.78v1.77h0v.03ZM90.51,40.08c0-1.93-.79-2.91-2.34-2.91s-1.23.28-1.74.82-.79,1.23-.89,2.09h4.97,0Z"/>
      </g>
      <path class="cls-1" d="M82.34,25.57c-1.03,0-1.97-.59-2.4-1.53C74.23,11.91,61.25,3.14,47.72,2.93c-15.44-.59-30.35,9.23-36.06,23.64l-.25-.09C15.21,15.25,24.57,5.95,35.86,2.15,47.4-1.88,60.72-.16,70.96,6.61c5.74,3.74,10.51,8.98,13.76,15.04.94,1.78-.34,3.9-2.37,3.9h0v.03Z"/>
      <path class="cls-1" d="M14.06,53.8c1.03,0,1.97.59,2.4,1.53,5.71,12.13,18.68,20.9,32.22,21.12,15.44.59,30.35-9.23,36.06-23.64l.25.09c-3.81,11.23-13.16,20.53-24.46,24.33-11.54,4.02-24.86,2.31-35.09-4.46-5.74-3.74-10.51-8.98-13.76-15.04-.94-1.78.34-3.9,2.37-3.9h0v-.03Z"/>
    </g>
  </g>
</svg>